<mxfile host="app.diagrams.net" agent="Mozilla/5.0 (Windows NT 10.0; Win64; x64) AppleWebKit/537.36 (KHTML, like Gecko) Chrome/138.0.0.0 Safari/537.36" version="27.1.6" pages="2">
  <diagram id="C5RBs43oDa-KdzZeNtuy" name="Main Flowchart">
    <mxGraphModel dx="1188" dy="659" grid="1" gridSize="10" guides="1" tooltips="1" connect="1" arrows="1" fold="1" page="1" pageScale="1" pageWidth="827" pageHeight="1169" background="none" math="0" shadow="0">
      <root>
        <mxCell id="WIyWlLk6GJQsqaUBKTNV-0" />
        <mxCell id="WIyWlLk6GJQsqaUBKTNV-1" parent="WIyWlLk6GJQsqaUBKTNV-0" />
        <mxCell id="WIyWlLk6GJQsqaUBKTNV-2" value="" style="rounded=0;html=1;jettySize=auto;orthogonalLoop=1;fontSize=11;endArrow=block;endFill=0;endSize=8;strokeWidth=1;shadow=0;labelBackgroundColor=none;edgeStyle=orthogonalEdgeStyle;" parent="WIyWlLk6GJQsqaUBKTNV-1" source="SQ4ypg5--YMcwRxMNHtg-1" target="WIyWlLk6GJQsqaUBKTNV-6" edge="1">
          <mxGeometry relative="1" as="geometry" />
        </mxCell>
        <mxCell id="WIyWlLk6GJQsqaUBKTNV-3" value="Start of program" style="rounded=0;whiteSpace=wrap;html=1;fontSize=12;glass=0;strokeWidth=1;shadow=0;" parent="WIyWlLk6GJQsqaUBKTNV-1" vertex="1">
          <mxGeometry x="310" y="120" width="120" height="40" as="geometry" />
        </mxCell>
        <mxCell id="WIyWlLk6GJQsqaUBKTNV-4" value="Yes" style="rounded=0;html=1;jettySize=auto;orthogonalLoop=1;fontSize=11;endArrow=block;endFill=0;endSize=8;strokeWidth=1;shadow=0;labelBackgroundColor=none;edgeStyle=orthogonalEdgeStyle;" parent="WIyWlLk6GJQsqaUBKTNV-1" source="WIyWlLk6GJQsqaUBKTNV-6" target="WIyWlLk6GJQsqaUBKTNV-10" edge="1">
          <mxGeometry y="20" relative="1" as="geometry">
            <mxPoint as="offset" />
          </mxGeometry>
        </mxCell>
        <mxCell id="SQ4ypg5--YMcwRxMNHtg-8" style="edgeStyle=orthogonalEdgeStyle;rounded=0;orthogonalLoop=1;jettySize=auto;html=1;entryX=1;entryY=0.5;entryDx=0;entryDy=0;" edge="1" parent="WIyWlLk6GJQsqaUBKTNV-1" source="WIyWlLk6GJQsqaUBKTNV-6" target="SQ4ypg5--YMcwRxMNHtg-9">
          <mxGeometry relative="1" as="geometry" />
        </mxCell>
        <mxCell id="SQ4ypg5--YMcwRxMNHtg-11" value="No" style="edgeLabel;html=1;align=center;verticalAlign=middle;resizable=0;points=[];rounded=0;" vertex="1" connectable="0" parent="SQ4ypg5--YMcwRxMNHtg-8">
          <mxGeometry x="-0.0862" y="-1" relative="1" as="geometry">
            <mxPoint y="-9" as="offset" />
          </mxGeometry>
        </mxCell>
        <mxCell id="WIyWlLk6GJQsqaUBKTNV-6" value="&lt;font style=&quot;font-size: 10px;&quot;&gt;Calc mode is local?&lt;/font&gt;" style="rhombus;whiteSpace=wrap;html=1;shadow=0;fontFamily=Helvetica;fontSize=12;align=center;strokeWidth=1;spacing=6;spacingTop=-4;rounded=0;" parent="WIyWlLk6GJQsqaUBKTNV-1" vertex="1">
          <mxGeometry x="315" y="300" width="110" height="90" as="geometry" />
        </mxCell>
        <mxCell id="WIyWlLk6GJQsqaUBKTNV-9" value="Yes" style="edgeStyle=orthogonalEdgeStyle;rounded=0;html=1;jettySize=auto;orthogonalLoop=1;fontSize=11;endArrow=block;endFill=0;endSize=8;strokeWidth=1;shadow=0;labelBackgroundColor=none;entryX=0.5;entryY=0;entryDx=0;entryDy=0;" parent="WIyWlLk6GJQsqaUBKTNV-1" source="WIyWlLk6GJQsqaUBKTNV-10" target="SQ4ypg5--YMcwRxMNHtg-16" edge="1">
          <mxGeometry x="-0.2" y="10" relative="1" as="geometry">
            <mxPoint as="offset" />
          </mxGeometry>
        </mxCell>
        <mxCell id="WIyWlLk6GJQsqaUBKTNV-10" value="One Cycle Only?" style="rhombus;whiteSpace=wrap;html=1;shadow=0;fontFamily=Helvetica;fontSize=12;align=center;strokeWidth=1;spacing=6;spacingTop=-4;rounded=0;" parent="WIyWlLk6GJQsqaUBKTNV-1" vertex="1">
          <mxGeometry x="320" y="430" width="100" height="80" as="geometry" />
        </mxCell>
        <mxCell id="WIyWlLk6GJQsqaUBKTNV-12" value="End Program" style="rounded=0;whiteSpace=wrap;html=1;fontSize=12;glass=0;strokeWidth=1;shadow=0;" parent="WIyWlLk6GJQsqaUBKTNV-1" vertex="1">
          <mxGeometry x="310" y="640" width="120" height="40" as="geometry" />
        </mxCell>
        <mxCell id="SQ4ypg5--YMcwRxMNHtg-2" value="" style="rounded=0;html=1;jettySize=auto;orthogonalLoop=1;fontSize=11;endArrow=block;endFill=0;endSize=8;strokeWidth=1;shadow=0;labelBackgroundColor=none;edgeStyle=orthogonalEdgeStyle;" edge="1" parent="WIyWlLk6GJQsqaUBKTNV-1" source="WIyWlLk6GJQsqaUBKTNV-3" target="SQ4ypg5--YMcwRxMNHtg-1">
          <mxGeometry relative="1" as="geometry">
            <mxPoint x="370" y="180" as="sourcePoint" />
            <mxPoint x="370" y="280" as="targetPoint" />
          </mxGeometry>
        </mxCell>
        <mxCell id="SQ4ypg5--YMcwRxMNHtg-1" value="&lt;span style=&quot;background-color: light-dark(#ffffff, var(--ge-dark-color, #121212));&quot;&gt;Initialization, imports, config&lt;/span&gt;" style="verticalLabelPosition=bottom;verticalAlign=top;html=1;shape=process;whiteSpace=wrap;rounded=0;size=0.14;arcSize=6;" vertex="1" parent="WIyWlLk6GJQsqaUBKTNV-1">
          <mxGeometry x="325" y="190" width="90" height="40" as="geometry" />
        </mxCell>
        <mxCell id="SQ4ypg5--YMcwRxMNHtg-5" style="edgeStyle=orthogonalEdgeStyle;rounded=0;orthogonalLoop=1;jettySize=auto;html=1;entryX=0;entryY=0.5;entryDx=0;entryDy=0;dashed=1;fillColor=#f5f5f5;strokeColor=#666666;" edge="1" parent="WIyWlLk6GJQsqaUBKTNV-1" source="SQ4ypg5--YMcwRxMNHtg-4" target="SQ4ypg5--YMcwRxMNHtg-1">
          <mxGeometry relative="1" as="geometry" />
        </mxCell>
        <mxCell id="SQ4ypg5--YMcwRxMNHtg-4" value="&lt;font style=&quot;font-size: 10px;&quot;&gt;.env&lt;/font&gt;&lt;div&gt;&lt;font style=&quot;font-size: 10px;&quot;&gt;Config vars&lt;/font&gt;&lt;/div&gt;" style="strokeWidth=2;html=1;shape=mxgraph.flowchart.database;whiteSpace=wrap;fillColor=#f5f5f5;fontColor=#333333;strokeColor=#666666;rounded=0;" vertex="1" parent="WIyWlLk6GJQsqaUBKTNV-1">
          <mxGeometry x="220" y="175" width="60" height="70" as="geometry" />
        </mxCell>
        <mxCell id="SQ4ypg5--YMcwRxMNHtg-15" style="edgeStyle=orthogonalEdgeStyle;rounded=0;orthogonalLoop=1;jettySize=auto;html=1;entryX=0;entryY=0.5;entryDx=0;entryDy=0;" edge="1" parent="WIyWlLk6GJQsqaUBKTNV-1" source="SQ4ypg5--YMcwRxMNHtg-7" target="WIyWlLk6GJQsqaUBKTNV-10">
          <mxGeometry relative="1" as="geometry" />
        </mxCell>
        <mxCell id="SQ4ypg5--YMcwRxMNHtg-7" value="Fetch entire season&#39;s data." style="rounded=0;whiteSpace=wrap;html=1;" vertex="1" parent="WIyWlLk6GJQsqaUBKTNV-1">
          <mxGeometry x="140" y="440" width="120" height="60" as="geometry" />
        </mxCell>
        <mxCell id="SQ4ypg5--YMcwRxMNHtg-10" style="edgeStyle=orthogonalEdgeStyle;rounded=0;orthogonalLoop=1;jettySize=auto;html=1;entryX=0;entryY=0.5;entryDx=0;entryDy=0;" edge="1" parent="WIyWlLk6GJQsqaUBKTNV-1" source="SQ4ypg5--YMcwRxMNHtg-9" target="WIyWlLk6GJQsqaUBKTNV-10">
          <mxGeometry relative="1" as="geometry">
            <Array as="points">
              <mxPoint x="200" y="410" />
              <mxPoint x="288" y="410" />
              <mxPoint x="288" y="470" />
            </Array>
          </mxGeometry>
        </mxCell>
        <mxCell id="SQ4ypg5--YMcwRxMNHtg-12" value="Yes" style="edgeLabel;html=1;align=center;verticalAlign=middle;resizable=0;points=[];rounded=0;" vertex="1" connectable="0" parent="SQ4ypg5--YMcwRxMNHtg-10">
          <mxGeometry x="-0.4538" y="1" relative="1" as="geometry">
            <mxPoint as="offset" />
          </mxGeometry>
        </mxCell>
        <mxCell id="SQ4ypg5--YMcwRxMNHtg-13" style="edgeStyle=orthogonalEdgeStyle;rounded=0;orthogonalLoop=1;jettySize=auto;html=1;entryX=0;entryY=0.5;entryDx=0;entryDy=0;" edge="1" parent="WIyWlLk6GJQsqaUBKTNV-1" source="SQ4ypg5--YMcwRxMNHtg-9" target="SQ4ypg5--YMcwRxMNHtg-7">
          <mxGeometry relative="1" as="geometry">
            <Array as="points">
              <mxPoint x="120" y="345" />
              <mxPoint x="120" y="470" />
            </Array>
          </mxGeometry>
        </mxCell>
        <mxCell id="SQ4ypg5--YMcwRxMNHtg-14" value="No" style="edgeLabel;html=1;align=center;verticalAlign=middle;resizable=0;points=[];rounded=0;" vertex="1" connectable="0" parent="SQ4ypg5--YMcwRxMNHtg-13">
          <mxGeometry x="-0.2267" y="1" relative="1" as="geometry">
            <mxPoint as="offset" />
          </mxGeometry>
        </mxCell>
        <mxCell id="SQ4ypg5--YMcwRxMNHtg-30" style="edgeStyle=orthogonalEdgeStyle;rounded=0;orthogonalLoop=1;jettySize=auto;html=1;entryX=1;entryY=0.5;entryDx=0;entryDy=0;dashed=1;strokeColor=#666666;fillColor=#f5f5f5;" edge="1" parent="WIyWlLk6GJQsqaUBKTNV-1" source="SQ4ypg5--YMcwRxMNHtg-21" target="WIyWlLk6GJQsqaUBKTNV-12">
          <mxGeometry relative="1" as="geometry">
            <Array as="points">
              <mxPoint x="550" y="660" />
            </Array>
          </mxGeometry>
        </mxCell>
        <mxCell id="SQ4ypg5--YMcwRxMNHtg-31" value="Keyboard Interrupt" style="edgeLabel;html=1;align=center;verticalAlign=middle;resizable=0;points=[];rounded=0;" vertex="1" connectable="0" parent="SQ4ypg5--YMcwRxMNHtg-30">
          <mxGeometry x="-0.259" y="-1" relative="1" as="geometry">
            <mxPoint as="offset" />
          </mxGeometry>
        </mxCell>
        <mxCell id="SQ4ypg5--YMcwRxMNHtg-9" value="&lt;font style=&quot;font-size: 10px;&quot;&gt;API calls disabled?&lt;/font&gt;" style="rhombus;whiteSpace=wrap;html=1;shadow=0;fontFamily=Helvetica;fontSize=12;align=center;strokeWidth=1;spacing=6;spacingTop=-4;rounded=0;" vertex="1" parent="WIyWlLk6GJQsqaUBKTNV-1">
          <mxGeometry x="145" y="300" width="110" height="90" as="geometry" />
        </mxCell>
        <mxCell id="SQ4ypg5--YMcwRxMNHtg-18" style="edgeStyle=orthogonalEdgeStyle;rounded=0;orthogonalLoop=1;jettySize=auto;html=1;entryX=0.5;entryY=0;entryDx=0;entryDy=0;" edge="1" parent="WIyWlLk6GJQsqaUBKTNV-1" source="SQ4ypg5--YMcwRxMNHtg-16" target="WIyWlLk6GJQsqaUBKTNV-12">
          <mxGeometry relative="1" as="geometry" />
        </mxCell>
        <mxCell id="SQ4ypg5--YMcwRxMNHtg-16" value="Cycle" style="rounded=0;whiteSpace=wrap;html=1;" vertex="1" parent="WIyWlLk6GJQsqaUBKTNV-1">
          <mxGeometry x="330" y="560" width="80" height="40" as="geometry" />
        </mxCell>
        <mxCell id="SQ4ypg5--YMcwRxMNHtg-22" value="" style="rounded=0;html=1;jettySize=auto;orthogonalLoop=1;fontSize=11;endArrow=block;endFill=0;endSize=8;strokeWidth=1;shadow=0;labelBackgroundColor=none;edgeStyle=orthogonalEdgeStyle;" edge="1" parent="WIyWlLk6GJQsqaUBKTNV-1" source="WIyWlLk6GJQsqaUBKTNV-10" target="SQ4ypg5--YMcwRxMNHtg-21">
          <mxGeometry x="0.3333" y="20" relative="1" as="geometry">
            <mxPoint as="offset" />
            <mxPoint x="420" y="470" as="sourcePoint" />
            <mxPoint x="530" y="570" as="targetPoint" />
          </mxGeometry>
        </mxCell>
        <mxCell id="SQ4ypg5--YMcwRxMNHtg-23" value="No" style="edgeLabel;html=1;align=center;verticalAlign=middle;resizable=0;points=[];rounded=0;" vertex="1" connectable="0" parent="SQ4ypg5--YMcwRxMNHtg-22">
          <mxGeometry x="-0.4483" relative="1" as="geometry">
            <mxPoint x="12" y="-10" as="offset" />
          </mxGeometry>
        </mxCell>
        <mxCell id="SQ4ypg5--YMcwRxMNHtg-21" value="Cycle" style="rounded=0;whiteSpace=wrap;html=1;" vertex="1" parent="WIyWlLk6GJQsqaUBKTNV-1">
          <mxGeometry x="510" y="450" width="80" height="40" as="geometry" />
        </mxCell>
        <mxCell id="SQ4ypg5--YMcwRxMNHtg-29" style="edgeStyle=orthogonalEdgeStyle;rounded=0;orthogonalLoop=1;jettySize=auto;html=1;entryX=0.5;entryY=0;entryDx=0;entryDy=0;" edge="1" parent="WIyWlLk6GJQsqaUBKTNV-1" source="SQ4ypg5--YMcwRxMNHtg-26" target="SQ4ypg5--YMcwRxMNHtg-21">
          <mxGeometry relative="1" as="geometry">
            <Array as="points">
              <mxPoint x="650" y="430" />
              <mxPoint x="550" y="430" />
            </Array>
          </mxGeometry>
        </mxCell>
        <mxCell id="SQ4ypg5--YMcwRxMNHtg-26" value="&lt;div&gt;Wait DELAY_SECONDS&lt;/div&gt;&lt;div&gt;seconds&lt;/div&gt;" style="strokeWidth=2;html=1;shape=mxgraph.flowchart.delay;whiteSpace=wrap;fontSize=9;rounded=0;" vertex="1" parent="WIyWlLk6GJQsqaUBKTNV-1">
          <mxGeometry x="610" y="445" width="90" height="50" as="geometry" />
        </mxCell>
        <mxCell id="SQ4ypg5--YMcwRxMNHtg-27" style="edgeStyle=orthogonalEdgeStyle;rounded=0;orthogonalLoop=1;jettySize=auto;html=1;entryX=0.5;entryY=1;entryDx=0;entryDy=0;entryPerimeter=0;" edge="1" parent="WIyWlLk6GJQsqaUBKTNV-1" source="SQ4ypg5--YMcwRxMNHtg-21" target="SQ4ypg5--YMcwRxMNHtg-26">
          <mxGeometry relative="1" as="geometry">
            <Array as="points">
              <mxPoint x="550" y="515" />
              <mxPoint x="655" y="515" />
            </Array>
          </mxGeometry>
        </mxCell>
        <mxCell id="8ulmjRdAfNsvKdTVoYVi-1" style="edgeStyle=orthogonalEdgeStyle;rounded=0;orthogonalLoop=1;jettySize=auto;html=1;entryX=0.5;entryY=1;entryDx=0;entryDy=0;fillColor=#f5f5f5;strokeColor=#666666;dashed=1;" edge="1" parent="WIyWlLk6GJQsqaUBKTNV-1" source="8ulmjRdAfNsvKdTVoYVi-0" target="SQ4ypg5--YMcwRxMNHtg-7">
          <mxGeometry relative="1" as="geometry" />
        </mxCell>
        <mxCell id="8ulmjRdAfNsvKdTVoYVi-0" value="FIRST API" style="strokeWidth=2;html=1;shape=mxgraph.flowchart.database;whiteSpace=wrap;fillColor=#f5f5f5;fontColor=#333333;strokeColor=#666666;rounded=0;" vertex="1" parent="WIyWlLk6GJQsqaUBKTNV-1">
          <mxGeometry x="165" y="540" width="70" height="60" as="geometry" />
        </mxCell>
        <mxCell id="1yXaT3Dakhk8ATyBZ7Gp-0" value="__main__.py Program Flowchart&lt;div&gt;(overview)&lt;/div&gt;" style="rounded=0;whiteSpace=wrap;html=1;strokeColor=none;" vertex="1" parent="WIyWlLk6GJQsqaUBKTNV-1">
          <mxGeometry x="250" y="40" width="240" height="40" as="geometry" />
        </mxCell>
      </root>
    </mxGraphModel>
  </diagram>
  <diagram id="XZj_Kpn3P_VKlOugcTjS" name="Cycle Flowchart">
    <mxGraphModel dx="1240" dy="688" grid="1" gridSize="10" guides="1" tooltips="1" connect="1" arrows="1" fold="1" page="1" pageScale="1" pageWidth="850" pageHeight="1100" math="0" shadow="0">
      <root>
        <mxCell id="0" />
        <mxCell id="1" parent="0" />
        <mxCell id="Jmmo8FZghrKpNcC4jSTg-1" value="Cycle" style="rounded=1;whiteSpace=wrap;html=1;" vertex="1" parent="1">
          <mxGeometry x="378" y="100" width="95" height="40" as="geometry" />
        </mxCell>
        <mxCell id="0luMWJWYEp-DWzJsp73f-3" style="edgeStyle=orthogonalEdgeStyle;rounded=0;orthogonalLoop=1;jettySize=auto;html=1;entryX=0.5;entryY=0;entryDx=0;entryDy=0;" edge="1" parent="1" source="Jmmo8FZghrKpNcC4jSTg-2" target="Jmmo8FZghrKpNcC4jSTg-5">
          <mxGeometry relative="1" as="geometry" />
        </mxCell>
        <mxCell id="0luMWJWYEp-DWzJsp73f-4" value="No" style="edgeLabel;html=1;align=center;verticalAlign=middle;resizable=0;points=[];" vertex="1" connectable="0" parent="0luMWJWYEp-DWzJsp73f-3">
          <mxGeometry x="-0.0125" y="-1" relative="1" as="geometry">
            <mxPoint x="20" y="-9" as="offset" />
          </mxGeometry>
        </mxCell>
        <mxCell id="0luMWJWYEp-DWzJsp73f-9" style="edgeStyle=orthogonalEdgeStyle;rounded=0;orthogonalLoop=1;jettySize=auto;html=1;entryX=0.5;entryY=0;entryDx=0;entryDy=0;" edge="1" parent="1" source="Jmmo8FZghrKpNcC4jSTg-2" target="0luMWJWYEp-DWzJsp73f-5">
          <mxGeometry relative="1" as="geometry" />
        </mxCell>
        <mxCell id="0luMWJWYEp-DWzJsp73f-10" value="Yes" style="edgeLabel;html=1;align=center;verticalAlign=middle;resizable=0;points=[];" vertex="1" connectable="0" parent="0luMWJWYEp-DWzJsp73f-9">
          <mxGeometry x="-0.707" y="-1" relative="1" as="geometry">
            <mxPoint x="11" y="9" as="offset" />
          </mxGeometry>
        </mxCell>
        <mxCell id="Jmmo8FZghrKpNcC4jSTg-2" value="API calls disabled?" style="strokeWidth=2;html=1;shape=mxgraph.flowchart.decision;whiteSpace=wrap;" vertex="1" parent="1">
          <mxGeometry x="378" y="170" width="95" height="90" as="geometry" />
        </mxCell>
        <mxCell id="Jmmo8FZghrKpNcC4jSTg-3" style="edgeStyle=orthogonalEdgeStyle;rounded=0;orthogonalLoop=1;jettySize=auto;html=1;entryX=0.5;entryY=0;entryDx=0;entryDy=0;entryPerimeter=0;" edge="1" parent="1" source="Jmmo8FZghrKpNcC4jSTg-1" target="Jmmo8FZghrKpNcC4jSTg-2">
          <mxGeometry relative="1" as="geometry" />
        </mxCell>
        <mxCell id="0luMWJWYEp-DWzJsp73f-8" style="edgeStyle=orthogonalEdgeStyle;rounded=0;orthogonalLoop=1;jettySize=auto;html=1;entryX=0.5;entryY=0;entryDx=0;entryDy=0;" edge="1" parent="1" source="Jmmo8FZghrKpNcC4jSTg-5" target="0luMWJWYEp-DWzJsp73f-5">
          <mxGeometry relative="1" as="geometry" />
        </mxCell>
        <mxCell id="Jmmo8FZghrKpNcC4jSTg-5" value="Fetch current event matches, schedule, and rankings" style="rounded=0;whiteSpace=wrap;html=1;" vertex="1" parent="1">
          <mxGeometry x="220" y="260" width="120" height="70" as="geometry" />
        </mxCell>
        <mxCell id="0luMWJWYEp-DWzJsp73f-2" style="edgeStyle=orthogonalEdgeStyle;rounded=0;orthogonalLoop=1;jettySize=auto;html=1;entryX=0;entryY=0.5;entryDx=0;entryDy=0;dashed=1;fillColor=#f5f5f5;strokeColor=#666666;" edge="1" parent="1" source="0luMWJWYEp-DWzJsp73f-1" target="Jmmo8FZghrKpNcC4jSTg-5">
          <mxGeometry relative="1" as="geometry" />
        </mxCell>
        <mxCell id="0luMWJWYEp-DWzJsp73f-1" value="FIRST API" style="strokeWidth=2;html=1;shape=mxgraph.flowchart.database;whiteSpace=wrap;fillColor=#f5f5f5;fontColor=#333333;strokeColor=#666666;" vertex="1" parent="1">
          <mxGeometry x="150" y="170" width="70" height="60" as="geometry" />
        </mxCell>
        <mxCell id="0luMWJWYEp-DWzJsp73f-5" value="Prepare for stats calculation" style="rounded=0;whiteSpace=wrap;html=1;" vertex="1" parent="1">
          <mxGeometry x="370" y="330" width="110" height="40" as="geometry" />
        </mxCell>
        <mxCell id="0luMWJWYEp-DWzJsp73f-24" style="edgeStyle=orthogonalEdgeStyle;rounded=0;orthogonalLoop=1;jettySize=auto;html=1;entryX=0.5;entryY=0;entryDx=0;entryDy=0;" edge="1" parent="1" source="0luMWJWYEp-DWzJsp73f-16" target="0luMWJWYEp-DWzJsp73f-20">
          <mxGeometry relative="1" as="geometry" />
        </mxCell>
        <mxCell id="0luMWJWYEp-DWzJsp73f-27" value="No" style="edgeLabel;html=1;align=center;verticalAlign=middle;resizable=0;points=[];" vertex="1" connectable="0" parent="0luMWJWYEp-DWzJsp73f-24">
          <mxGeometry x="-0.5327" relative="1" as="geometry">
            <mxPoint y="-9" as="offset" />
          </mxGeometry>
        </mxCell>
        <mxCell id="0luMWJWYEp-DWzJsp73f-25" style="edgeStyle=orthogonalEdgeStyle;rounded=0;orthogonalLoop=1;jettySize=auto;html=1;entryX=0.5;entryY=0;entryDx=0;entryDy=0;" edge="1" parent="1" source="0luMWJWYEp-DWzJsp73f-16" target="0luMWJWYEp-DWzJsp73f-19">
          <mxGeometry relative="1" as="geometry" />
        </mxCell>
        <mxCell id="0luMWJWYEp-DWzJsp73f-26" value="Yes" style="edgeLabel;html=1;align=center;verticalAlign=middle;resizable=0;points=[];" vertex="1" connectable="0" parent="0luMWJWYEp-DWzJsp73f-25">
          <mxGeometry x="-0.322" y="-2" relative="1" as="geometry">
            <mxPoint y="-7" as="offset" />
          </mxGeometry>
        </mxCell>
        <mxCell id="0luMWJWYEp-DWzJsp73f-16" value="Cached &amp;amp;&lt;div&gt;same inputs?&lt;/div&gt;" style="strokeWidth=2;html=1;shape=mxgraph.flowchart.decision;whiteSpace=wrap;fontSize=11;" vertex="1" parent="1">
          <mxGeometry x="373" y="400" width="105" height="100" as="geometry" />
        </mxCell>
        <mxCell id="0luMWJWYEp-DWzJsp73f-19" value="Use&amp;nbsp;&lt;div&gt;cached values&lt;/div&gt;" style="rounded=0;whiteSpace=wrap;html=1;" vertex="1" parent="1">
          <mxGeometry x="250" y="500" width="110" height="40" as="geometry" />
        </mxCell>
        <mxCell id="0luMWJWYEp-DWzJsp73f-20" value="Calculate stats" style="rounded=0;whiteSpace=wrap;html=1;" vertex="1" parent="1">
          <mxGeometry x="480" y="500" width="110" height="40" as="geometry" />
        </mxCell>
        <mxCell id="0luMWJWYEp-DWzJsp73f-28" style="edgeStyle=orthogonalEdgeStyle;rounded=0;orthogonalLoop=1;jettySize=auto;html=1;entryX=0.5;entryY=0;entryDx=0;entryDy=0;entryPerimeter=0;" edge="1" parent="1" source="0luMWJWYEp-DWzJsp73f-5" target="0luMWJWYEp-DWzJsp73f-16">
          <mxGeometry relative="1" as="geometry" />
        </mxCell>
        <mxCell id="0luMWJWYEp-DWzJsp73f-30" value="" style="strokeWidth=2;html=1;shape=mxgraph.flowchart.annotation_2;align=left;labelPosition=right;pointerEvents=1;fillColor=#f5f5f5;fontColor=#333333;strokeColor=#666666;" vertex="1" parent="1">
          <mxGeometry x="210" y="400" width="50" height="190" as="geometry" />
        </mxCell>
        <mxCell id="0luMWJWYEp-DWzJsp73f-31" value="Stats&lt;div&gt;Calculation&lt;/div&gt;" style="text;html=1;align=center;verticalAlign=middle;resizable=0;points=[];autosize=1;strokeColor=#666666;fillColor=#f5f5f5;fontColor=#333333;" vertex="1" parent="1">
          <mxGeometry x="130" y="475" width="80" height="40" as="geometry" />
        </mxCell>
        <mxCell id="0luMWJWYEp-DWzJsp73f-32" value="API calls disabled?" style="strokeWidth=2;html=1;shape=mxgraph.flowchart.decision;whiteSpace=wrap;" vertex="1" parent="1">
          <mxGeometry x="305" y="580" width="95" height="90" as="geometry" />
        </mxCell>
        <mxCell id="0luMWJWYEp-DWzJsp73f-33" style="edgeStyle=orthogonalEdgeStyle;rounded=0;orthogonalLoop=1;jettySize=auto;html=1;entryX=0.5;entryY=0;entryDx=0;entryDy=0;entryPerimeter=0;" edge="1" parent="1" source="0luMWJWYEp-DWzJsp73f-19" target="0luMWJWYEp-DWzJsp73f-32">
          <mxGeometry relative="1" as="geometry" />
        </mxCell>
        <mxCell id="0luMWJWYEp-DWzJsp73f-34" style="edgeStyle=orthogonalEdgeStyle;rounded=0;orthogonalLoop=1;jettySize=auto;html=1;entryX=0.5;entryY=0;entryDx=0;entryDy=0;entryPerimeter=0;" edge="1" parent="1" source="0luMWJWYEp-DWzJsp73f-20" target="0luMWJWYEp-DWzJsp73f-32">
          <mxGeometry relative="1" as="geometry">
            <Array as="points">
              <mxPoint x="535" y="560" />
              <mxPoint x="353" y="560" />
            </Array>
          </mxGeometry>
        </mxCell>
        <mxCell id="0luMWJWYEp-DWzJsp73f-35" value="End of function" style="strokeWidth=2;html=1;shape=mxgraph.flowchart.terminator;whiteSpace=wrap;" vertex="1" parent="1">
          <mxGeometry x="300" y="730" width="105" height="50" as="geometry" />
        </mxCell>
        <mxCell id="0luMWJWYEp-DWzJsp73f-36" style="edgeStyle=orthogonalEdgeStyle;rounded=0;orthogonalLoop=1;jettySize=auto;html=1;entryX=0.5;entryY=0;entryDx=0;entryDy=0;entryPerimeter=0;" edge="1" parent="1" source="0luMWJWYEp-DWzJsp73f-32" target="0luMWJWYEp-DWzJsp73f-35">
          <mxGeometry relative="1" as="geometry" />
        </mxCell>
        <mxCell id="0luMWJWYEp-DWzJsp73f-37" value="Yes" style="edgeLabel;html=1;align=center;verticalAlign=middle;resizable=0;points=[];" vertex="1" connectable="0" parent="0luMWJWYEp-DWzJsp73f-36">
          <mxGeometry x="-0.3444" y="2" relative="1" as="geometry">
            <mxPoint x="9" y="3" as="offset" />
          </mxGeometry>
        </mxCell>
        <mxCell id="0luMWJWYEp-DWzJsp73f-39" value="Push data to Google Sheets" style="rounded=0;whiteSpace=wrap;html=1;" vertex="1" parent="1">
          <mxGeometry x="480" y="735" width="110" height="40" as="geometry" />
        </mxCell>
        <mxCell id="0luMWJWYEp-DWzJsp73f-44" style="edgeStyle=orthogonalEdgeStyle;rounded=0;orthogonalLoop=1;jettySize=auto;html=1;entryX=1;entryY=0.5;entryDx=0;entryDy=0;" edge="1" parent="1" source="0luMWJWYEp-DWzJsp73f-40" target="0luMWJWYEp-DWzJsp73f-39">
          <mxGeometry relative="1" as="geometry">
            <Array as="points">
              <mxPoint x="610" y="625" />
              <mxPoint x="610" y="755" />
            </Array>
          </mxGeometry>
        </mxCell>
        <mxCell id="0luMWJWYEp-DWzJsp73f-47" value="No" style="edgeLabel;html=1;align=center;verticalAlign=middle;resizable=0;points=[];" vertex="1" connectable="0" parent="0luMWJWYEp-DWzJsp73f-44">
          <mxGeometry x="-0.7048" y="1" relative="1" as="geometry">
            <mxPoint x="-7" y="-9" as="offset" />
          </mxGeometry>
        </mxCell>
        <mxCell id="0luMWJWYEp-DWzJsp73f-40" value="Google API calls disabled?" style="strokeWidth=2;html=1;shape=mxgraph.flowchart.decision;whiteSpace=wrap;fontSize=10;" vertex="1" parent="1">
          <mxGeometry x="455" y="580" width="95" height="90" as="geometry" />
        </mxCell>
        <mxCell id="0luMWJWYEp-DWzJsp73f-42" style="edgeStyle=orthogonalEdgeStyle;rounded=0;orthogonalLoop=1;jettySize=auto;html=1;entryX=0;entryY=0.5;entryDx=0;entryDy=0;entryPerimeter=0;" edge="1" parent="1" source="0luMWJWYEp-DWzJsp73f-32" target="0luMWJWYEp-DWzJsp73f-40">
          <mxGeometry relative="1" as="geometry" />
        </mxCell>
        <mxCell id="0luMWJWYEp-DWzJsp73f-43" value="No" style="edgeLabel;html=1;align=center;verticalAlign=middle;resizable=0;points=[];" vertex="1" connectable="0" parent="0luMWJWYEp-DWzJsp73f-42">
          <mxGeometry x="-0.2364" y="1" relative="1" as="geometry">
            <mxPoint y="-8" as="offset" />
          </mxGeometry>
        </mxCell>
        <mxCell id="0luMWJWYEp-DWzJsp73f-46" style="edgeStyle=orthogonalEdgeStyle;rounded=0;orthogonalLoop=1;jettySize=auto;html=1;entryX=1;entryY=0.5;entryDx=0;entryDy=0;entryPerimeter=0;" edge="1" parent="1" source="0luMWJWYEp-DWzJsp73f-39" target="0luMWJWYEp-DWzJsp73f-35">
          <mxGeometry relative="1" as="geometry" />
        </mxCell>
        <mxCell id="0luMWJWYEp-DWzJsp73f-49" style="edgeStyle=orthogonalEdgeStyle;rounded=0;orthogonalLoop=1;jettySize=auto;html=1;entryX=1;entryY=0.5;entryDx=0;entryDy=0;entryPerimeter=0;exitX=0.5;exitY=1;exitDx=0;exitDy=0;exitPerimeter=0;" edge="1" parent="1" source="0luMWJWYEp-DWzJsp73f-40" target="0luMWJWYEp-DWzJsp73f-35">
          <mxGeometry relative="1" as="geometry">
            <Array as="points">
              <mxPoint x="430" y="670" />
              <mxPoint x="430" y="755" />
            </Array>
          </mxGeometry>
        </mxCell>
        <mxCell id="0luMWJWYEp-DWzJsp73f-50" value="Yes" style="edgeLabel;html=1;align=center;verticalAlign=middle;resizable=0;points=[];" vertex="1" connectable="0" parent="0luMWJWYEp-DWzJsp73f-49">
          <mxGeometry x="-0.4941" y="-1" relative="1" as="geometry">
            <mxPoint y="-8" as="offset" />
          </mxGeometry>
        </mxCell>
        <mxCell id="Hx9zvOWnlipzFL4LW54g-1" value="__main__.py Program Flowchart&lt;div&gt;(Cycle function)&lt;/div&gt;" style="rounded=0;whiteSpace=wrap;html=1;strokeColor=none;" vertex="1" parent="1">
          <mxGeometry x="305.5" y="30" width="240" height="40" as="geometry" />
        </mxCell>
      </root>
    </mxGraphModel>
  </diagram>
</mxfile>
